<?xml version="1.0" encoding="UTF-8" standalone="no"?><!DOCTYPE svg PUBLIC "-//W3C//DTD SVG 1.1//EN" "http://www.w3.org/Graphics/SVG/1.1/DTD/svg11.dtd"><svg width="100%" height="100%" viewBox="0 0 1457 132" version="1.1" xmlns="http://www.w3.org/2000/svg" xmlns:xlink="http://www.w3.org/1999/xlink" xml:space="preserve" xmlns:serif="http://www.serif.com/" style="fill-rule:evenodd;clip-rule:evenodd;stroke-linejoin:round;stroke-miterlimit:2;"><g><g><path d="M676.559,0.269l-43.909,0l-43.91,131.729l43.91,-0l43.909,-131.729Z" style="fill:#0048ff;"/><path d="M589.319,0.269l-43.91,0l-24.508,73.526l29.285,17.585l8.762,0l30.371,-91.111Z" style="fill:#0048ff;"/><path d="M621.299,36.055l42.593,-0l-67.182,55.325l-42.592,0l67.181,-55.325Z" style="fill:#0048ff;"/></g><g><g><path d="M857.829,0.269l-43.909,0l-43.91,131.729l43.91,-0l43.909,-131.729Z" style="fill:#0048ff;"/></g><g><path d="M788.469,76.672l42.592,-0l-67.181,55.326l-42.593,-0l67.182,-55.326Z" style="fill:#0048ff;"/></g><g><path d="M770.01,0.269l-43.909,0l-38.048,114.144l29.285,17.585l8.763,-0l43.909,-131.729Z" style="fill:#0048ff;"/></g></g><g><g><path d="M1316.45,0.269l-43.91,0l-43.909,131.729l43.909,-0l43.91,-131.729Z" style="fill:#0048ff;"/></g><g><path d="M1247.09,76.672l42.592,-0l-67.182,55.326l-42.592,-0l67.182,-55.326Z" style="fill:#0048ff;"/></g><g><path d="M1228.63,0.269l-43.91,0l-38.047,114.144l29.285,17.585l8.762,-0l43.91,-131.729Z" style="fill:#0048ff;"/></g></g><g><g><path d="M420.236,0.267l-43.909,0l-43.91,131.729l43.91,-0l43.909,-131.729Z" style="fill:#0048ff;"/></g><g><path d="M460.649,0.267l42.593,0l-67.182,55.326l-42.592,0l67.181,-55.326Z" style="fill:#0048ff;"/></g><g><path d="M420.236,132l43.91,0l19.023,-57.07l-29.285,-17.585l-8.763,0l-24.885,74.655Z" style="fill:#0048ff;"/></g></g><g><g><path d="M1404.27,0.267l-43.91,0l-43.909,131.729l43.909,-0l43.91,-131.729Z" style="fill:#0048ff;"/></g><g><path d="M1413.86,76.674l42.592,0l-67.182,55.326l-42.592,0l67.182,-55.326Z" style="fill:#0048ff;"/></g><g><path d="M1393.52,132l43.91,0l19.023,-57.07l-29.285,-17.585l-8.763,0l-24.885,74.655Z" style="fill:#0048ff;"/></g><g><path d="M1393.52,55.345l43.91,0l12.586,-37.76l-29.285,-17.585l-8.762,0l-18.449,55.345Z" style="fill:#0048ff;"/></g></g><g><g><path d="M1059.45,132l43.909,0l43.91,-131.729l-43.91,0l-43.909,131.729Z" style="fill:#0048ff;"/></g><g><path d="M1027.16,97l-42.592,-0l67.181,-55.326l42.592,0l-67.181,55.326Z" style="fill:#0048ff;"/></g><g><path d="M1059.45,0.267l-43.91,0l-38.049,114.148l29.285,17.585l8.763,0l43.911,-131.733Z" style="fill:#0048ff;"/></g></g><g><path d="M155.659,0.269l-43.91,0l-43.909,131.729l43.909,-0l43.91,-131.729Z" style="fill:#0048ff;"/><path d="M68.418,0.269l-43.909,0l-24.509,73.526l29.285,17.585l8.763,0l30.37,-91.111Z" style="fill:#0048ff;"/><path d="M100.399,36.055l42.592,-0l-67.181,55.325l-42.593,0l67.182,-55.325Z" style="fill:#0048ff;"/></g><g><g><path d="M327.606,0.269l-43.91,0l-43.909,131.729l43.909,-0l43.91,-131.729Z" style="fill:#0048ff;"/></g><g><path d="M258.245,76.672l42.592,-0l-67.181,55.326l-42.592,-0l67.181,-55.326Z" style="fill:#0048ff;"/></g><g><path d="M239.787,0.269l-43.91,0l-38.048,114.144l29.286,17.585l8.762,-0l43.91,-131.729Z" style="fill:#0048ff;"/></g></g></g></svg>