<?xml version="1.0" encoding="UTF-8" standalone="no"?><!DOCTYPE svg PUBLIC "-//W3C//DTD SVG 1.1//EN" "http://www.w3.org/Graphics/SVG/1.1/DTD/svg11.dtd"><svg width="100%" height="100%" viewBox="0 0 1667 1667" version="1.1" xmlns="http://www.w3.org/2000/svg" xmlns:xlink="http://www.w3.org/1999/xlink" xml:space="preserve" xmlns:serif="http://www.serif.com/" style="fill-rule:evenodd;clip-rule:evenodd;stroke-linejoin:round;stroke-miterlimit:2;"><rect x="-125" y="-41.667" width="1875" height="1833.33" style="fill:#24203e;"/><path d="M1251.15,690.442c0,-0 -37.446,-17.738 -76.379,-6.184c-29.137,8.567 -61.033,30.7 -79.175,76.567c-34.987,88.042 -4.696,241.583 -16.546,241.583c-11.846,0 -49.141,-141.471 -99.033,-288.829c-49.925,-147.321 -93.034,-300.342 -170.942,-288.012c-69.079,10.916 -47.654,185.4 -20.604,348.816c24.517,148.142 52.871,286.821 36.663,286.821c-28.951,0.038 -123.926,-409.4 -221.284,-393.825c-97.354,15.5 28.058,466.667 1.717,467.521c-21.65,0.708 -74.742,-274.596 -153.546,-261.967c-59.688,9.579 -6.521,223.779 -4.058,283.542c0.595,14.979 5.25,43.108 -17.18,43.108l-44.558,0l0,41.654l72.95,0c14.979,-0.745 26.829,-6.483 32.825,-21.237c20.271,-50 -32.937,-262.375 -20.492,-263.942c8.571,-1.041 27.013,63.6 52.759,136.742c25.708,73.138 51.529,148.85 100.45,148.85c105.441,0 -2.125,-414.358 18.779,-414.358c11.067,-0 41.208,84.204 74.329,176.533c40.575,112.821 90.021,237.971 149.708,237.971c71.238,-0 48.063,-161.629 26.005,-316.513c-19.113,-134.058 -41.505,-259.991 -29.546,-259.991c26.866,-0 128.433,576.283 250.379,576.283c61.104,0 61.775,-120.458 61.775,-250.379c0,-91.213 -7.6,-174.371 49.592,-194.379c27.2,-9.467 54.695,7.375 54.695,7.375l-29.283,-113.75Z" style="fill:#fff;fill-rule:nonzero;"/></svg>