<?xml version="1.0" encoding="UTF-8" standalone="no"?><!DOCTYPE svg PUBLIC "-//W3C//DTD SVG 1.1//EN" "http://www.w3.org/Graphics/SVG/1.1/DTD/svg11.dtd"><svg width="100%" height="100%" viewBox="0 0 400 400" version="1.1" xmlns="http://www.w3.org/2000/svg" xmlns:xlink="http://www.w3.org/1999/xlink" xml:space="preserve" xmlns:serif="http://www.serif.com/" style="fill-rule:evenodd;clip-rule:evenodd;stroke-linejoin:round;stroke-miterlimit:2;"><path d="M300.277,165.706c-0,-0 -8.987,-4.257 -18.331,-1.484c-6.993,2.056 -14.648,7.368 -19.002,18.376c-8.397,21.13 -1.127,57.98 -3.971,57.98c-2.843,0 -11.794,-33.953 -23.768,-69.319c-11.982,-35.357 -22.328,-72.082 -41.026,-69.123c-16.579,2.62 -11.437,44.496 -4.945,83.716c5.884,35.554 12.689,68.837 8.799,68.837c-6.948,0.009 -29.742,-98.256 -53.108,-94.518c-23.365,3.72 6.734,112 0.412,112.205c-5.196,0.17 -17.938,-65.903 -36.851,-62.872c-14.325,2.299 -1.565,53.707 -0.974,68.05c0.143,3.595 1.26,10.346 -4.123,10.346l-10.694,-0l-0,9.997l17.508,0c3.595,-0.179 6.439,-1.556 7.878,-5.097c4.865,-12 -7.905,-62.97 -4.918,-63.346c2.057,-0.25 6.483,15.264 12.662,32.818c6.17,17.553 12.367,35.724 24.108,35.724c25.306,-0 -0.51,-99.446 4.507,-99.446c2.656,0 9.89,20.209 17.839,42.368c9.738,27.077 21.605,57.113 35.93,57.113c17.097,0 11.535,-38.791 6.241,-75.963c-4.587,-32.174 -9.961,-62.398 -7.091,-62.398c6.448,-0 30.824,138.308 60.091,138.308c14.665,-0 14.826,-28.91 14.826,-60.091c0,-21.891 -1.824,-41.849 11.902,-46.651c6.528,-2.272 13.127,1.77 13.127,1.77l-7.028,-27.3Z" style="fill:#5000b9;fill-rule:nonzero;"/></svg>