<?xml version="1.0" encoding="UTF-8" standalone="no"?><!DOCTYPE svg PUBLIC "-//W3C//DTD SVG 1.1//EN" "http://www.w3.org/Graphics/SVG/1.1/DTD/svg11.dtd"><svg width="100%" height="100%" viewBox="0 0 400 400" version="1.1" xmlns="http://www.w3.org/2000/svg" xmlns:xlink="http://www.w3.org/1999/xlink" xml:space="preserve" xmlns:serif="http://www.serif.com/" style="fill-rule:evenodd;clip-rule:evenodd;stroke-linejoin:round;stroke-miterlimit:2;"><path d="M163.951,297.453c-33.653,0 -60.762,-28.044 -60.762,-61.697c-0,-15.891 6.543,-31.783 17.761,-43.001l21.5,-21.5c4.674,-3.739 11.218,-3.739 14.957,0.935c3.739,3.739 3.739,9.348 0,14.022l-21.5,21.5c-15.892,15.892 -15.892,41.131 -0,57.023c15.891,15.892 41.131,15.892 57.023,0l21.5,-21.5c4.674,-3.74 11.218,-3.74 14.957,0.934c3.739,3.74 3.739,9.348 0,14.022l-21.5,21.501c-12.153,11.218 -27.11,17.761 -43.936,17.761Zm9.348,-59.827c-5.609,-0 -10.283,-4.674 -10.283,-10.283c0,-2.804 0.935,-5.609 2.804,-7.478l54.219,-54.219c3.739,-3.739 10.283,-3.739 14.957,-0c3.739,3.739 3.739,10.283 -0,14.957l-54.219,54.218c-1.869,1.87 -4.674,2.805 -7.478,2.805Zm77.588,-5.609c-2.804,-0 -5.608,-0.935 -7.478,-2.804c-3.739,-3.74 -3.739,-10.283 0,-14.957l21.501,-21.501c15.891,-15.891 15.891,-41.131 -0,-57.023c-15.892,-15.891 -41.132,-15.891 -57.023,0l-21.501,21.501c-4.674,3.739 -11.218,3.739 -14.957,-0.935c-3.739,-3.739 -3.739,-9.348 0,-14.022l21.501,-21.501c24.305,-24.304 62.631,-24.304 86.002,0c23.37,24.305 24.304,62.632 -0,86.002l-21.501,22.436c-1.87,1.869 -4.674,2.804 -6.544,2.804Z" style="fill:#fff;fill-rule:nonzero;"/></svg>