<?xml version="1.0" encoding="UTF-8" standalone="no"?><!DOCTYPE svg PUBLIC "-//W3C//DTD SVG 1.1//EN" "http://www.w3.org/Graphics/SVG/1.1/DTD/svg11.dtd"><svg width="100%" height="100%" viewBox="0 0 1667 1667" version="1.1" xmlns="http://www.w3.org/2000/svg" xmlns:xlink="http://www.w3.org/1999/xlink" xml:space="preserve" xmlns:serif="http://www.serif.com/" style="fill-rule:evenodd;clip-rule:evenodd;stroke-linejoin:round;stroke-miterlimit:2;"><rect x="-125" y="-41.667" width="1875" height="1833.33" style="fill:#fff;"/><path d="M1383.84,554.971c-13.196,-49.704 -51.984,-88.75 -101.596,-102.271c-89.584,-24.179 -448.909,-24.179 -448.909,-24.179c0,-0 -359.325,-0 -448.954,24.179c-49.591,13.546 -88.354,52.583 -101.55,102.271c-24.033,90.2 -24.033,278.362 -24.033,278.362c-0,0 -0,188.163 24.033,278.363c13.196,49.704 51.984,88.75 101.596,102.271c89.583,24.179 448.908,24.179 448.908,24.179c0,-0 359.325,-0 448.955,-24.179c49.62,-13.513 88.412,-52.563 101.6,-102.271c23.983,-90.2 23.983,-278.363 23.983,-278.363c-0,0 -0,-188.162 -24.033,-278.362Zm-668.046,449.192l-0,-341.659l300.341,170.829l-300.341,170.83Z" style="fill:#f00;fill-rule:nonzero;"/></svg>