<?xml version="1.0" encoding="UTF-8" standalone="no"?><!DOCTYPE svg PUBLIC "-//W3C//DTD SVG 1.1//EN" "http://www.w3.org/Graphics/SVG/1.1/DTD/svg11.dtd"><svg width="100%" height="100%" viewBox="0 0 400 400" version="1.1" xmlns="http://www.w3.org/2000/svg" xmlns:xlink="http://www.w3.org/1999/xlink" xml:space="preserve" xmlns:serif="http://www.serif.com/" style="fill-rule:evenodd;clip-rule:evenodd;stroke-linejoin:round;stroke-miterlimit:2;"><path d="M332.121,133.193c-3.167,-11.929 -12.476,-21.3 -24.383,-24.545c-21.5,-5.803 -107.738,-5.803 -107.738,-5.803c-0,0 -86.238,0 -107.749,5.803c-11.902,3.251 -21.205,12.62 -24.372,24.545c-5.768,21.648 -5.768,66.807 -5.768,66.807c-0,0 -0,45.159 5.768,66.807c3.167,11.929 12.476,21.3 24.383,24.545c21.5,5.803 107.738,5.803 107.738,5.803c-0,-0 86.238,-0 107.749,-5.803c11.909,-3.243 21.219,-12.615 24.384,-24.545c5.756,-21.648 5.756,-66.807 5.756,-66.807c0,0 0,-45.159 -5.768,-66.807Zm-160.331,107.806l0,-81.998l72.082,40.999l-72.082,40.999Z" style="fill:#f00;fill-rule:nonzero;"/></svg>