<?xml version="1.0" encoding="UTF-8" standalone="no"?><!DOCTYPE svg PUBLIC "-//W3C//DTD SVG 1.1//EN" "http://www.w3.org/Graphics/SVG/1.1/DTD/svg11.dtd"><svg width="100%" height="100%" viewBox="0 0 1667 1667" version="1.1" xmlns="http://www.w3.org/2000/svg" xmlns:xlink="http://www.w3.org/1999/xlink" xml:space="preserve" xmlns:serif="http://www.serif.com/" style="fill-rule:evenodd;clip-rule:evenodd;stroke-linejoin:round;stroke-miterlimit:2;"><rect x="-125" y="-41.667" width="1875" height="1833.33" style="fill:#fff;"/><path d="M426.092,1241.76l172.946,-0c9.158,-0 17.279,-5.1 22.379,-12.213l476.112,-782.3c6.104,-10.167 -1.008,-22.379 -13.221,-22.379l-163.783,-0c-8.154,-0 -15.267,4.058 -19.325,11.204l-483.225,791.463c-3.054,6.104 1.004,14.225 8.117,14.225Zm596.171,-12.213l224.82,-361.154c7.113,-11.208 -1.008,-25.433 -14.229,-25.433l-162.775,-0c-6.104,-0 -12.212,3.054 -15.266,8.154l-230.925,369.304c-6.109,9.162 1.008,21.375 12.212,21.375l165.829,-0c8.121,-0.033 16.242,-4.092 20.334,-12.246Z" style="fill:#3ea8ff;fill-rule:nonzero;"/></svg>