<?xml version="1.0" encoding="UTF-8" standalone="no"?><!DOCTYPE svg PUBLIC "-//W3C//DTD SVG 1.1//EN" "http://www.w3.org/Graphics/SVG/1.1/DTD/svg11.dtd"><svg width="100%" height="100%" viewBox="0 0 400 400" version="1.1" xmlns="http://www.w3.org/2000/svg" xmlns:xlink="http://www.w3.org/1999/xlink" xml:space="preserve" xmlns:serif="http://www.serif.com/" style="fill-rule:evenodd;clip-rule:evenodd;stroke-linejoin:round;stroke-miterlimit:2;"><path d="M102.262,298.023l41.507,0c2.198,0 4.147,-1.224 5.371,-2.931l114.267,-187.752c1.465,-2.44 -0.242,-5.371 -3.173,-5.371l-39.308,-0c-1.957,-0 -3.664,0.974 -4.638,2.689l-115.974,189.951c-0.733,1.465 0.241,3.414 1.948,3.414Zm143.081,-2.931l53.957,-86.677c1.707,-2.69 -0.242,-6.104 -3.415,-6.104l-39.066,-0c-1.465,-0 -2.931,0.733 -3.664,1.957l-55.422,88.633c-1.466,2.199 0.242,5.13 2.931,5.13l39.799,0c1.949,-0.008 3.898,-0.982 4.88,-2.939Z" style="fill:#3ea8ff;fill-rule:nonzero;"/></svg>